<?xml version="1.0" standalone="no"?>
<!DOCTYPE svg PUBLIC "-//W3C//DTD SVG 20010904//EN"
 "http://www.w3.org/TR/2001/REC-SVG-20010904/DTD/svg10.dtd">
<svg version="1.0" xmlns="http://www.w3.org/2000/svg"
 width="400.000000pt" height="451.000000pt" viewBox="0 0 400.000000 451.000000"
 preserveAspectRatio="xMidYMid meet">

<g transform="translate(0.000000,451.000000) scale(0.100000,-0.100000)"
fill="rgba(0, 0, 0, 0.060)" stroke="none">
<path d="M1933 4500 c-29 -4 -70 -15 -90 -23 -21 -8 -402 -225 -848 -481 -721
-415 -816 -473 -864 -523 -62 -66 -107 -155 -121 -239 -13 -79 -13 -1839 0
-1918 14 -84 59 -173 121 -239 48 -50 143 -108 864 -523 446 -257 835 -475
865 -486 75 -27 205 -27 280 0 30 11 420 229 865 486 721 415 816 473 864 523
62 66 107 155 121 239 13 79 13 1839 0 1918 -14 84 -59 173 -121 239 -48 50
-143 108 -864 523 -445 257 -832 474 -860 484 -63 22 -144 30 -212 20z m143
-143 c76 -20 1648 -926 1695 -978 20 -21 47 -61 60 -87 l24 -47 0 -970 0 -970
-24 -47 c-48 -99 -55 -103 -901 -589 -774 -446 -857 -489 -930 -489 -73 0
-156 43 -930 489 -846 486 -853 490 -901 589 l-24 47 0 970 0 970 24 47 c48
98 56 103 901 589 442 255 825 469 850 475 60 17 95 17 156 1z"/>
<path d="M1193 3418 c-29 -5 -53 -13 -53 -16 0 -4 70 -77 155 -162 174 -173
174 -174 131 -265 -46 -98 -154 -192 -249 -217 l-47 -12 -164 163 -164 164
-11 -39 c-16 -57 -13 -192 5 -255 69 -234 280 -381 539 -378 131 2 87 38 755
-627 459 -457 616 -608 650 -623 61 -28 150 -28 207 0 113 55 164 194 112 309
-15 34 -162 188 -624 650 -583 584 -604 607 -619 659 -9 30 -16 91 -16 136 0
147 -41 253 -140 358 -121 130 -294 187 -467 155z m1710 -1964 c35 -34 42 -75
22 -117 -19 -41 -54 -61 -101 -60 -87 3 -127 111 -65 174 40 40 106 41 144 3z"/>
<path d="M2845 3337 c-22 -8 -53 -21 -70 -30 -16 -9 -169 -154 -340 -321
l-310 -305 53 -53 52 -53 283 283 c289 289 310 305 345 270 30 -30 9 -56 -273
-338 l-285 -285 42 -42 43 -43 285 285 c282 282 308 303 338 273 35 -35 19
-56 -270 -345 l-283 -283 47 -47 47 -47 248 243 c420 412 413 404 421 532 4
66 1 84 -20 131 -34 73 -79 122 -141 153 -64 30 -156 40 -212 22z"/>
<path d="M1441 1706 c-153 -153 -243 -235 -282 -258 -56 -32 -60 -37 -108
-138 l-50 -105 40 -40 39 -40 104 52 c96 48 105 55 134 105 19 34 112 135 261
283 l231 230 -67 67 c-37 38 -70 68 -73 68 -3 0 -106 -101 -229 -224z"/>
</g>
</svg>
